<svg xmlns="http://www.w3.org/2000/svg" xmlns:xlink="http://www.w3.org/1999/xlink" width="251" height="169" viewBox="0 0 251 169">
  <defs>
    <style>
      .cls-1 {
        fill: none;
      }

      .cls-2 {
        clip-path: url(#clip-path);
      }

      .cls-3 {
        fill: #f2be8d;
      }
    </style>
    <clipPath id="clip-path">
      <rect class="cls-1" width="251" height="169"/>
    </clipPath>
  </defs>
  <g id="Repeat_Grid_2" data-name="Repeat Grid 2" class="cls-2">
    <g transform="translate(-624 -447)">
      <circle id="Ellipse_1" data-name="Ellipse 1" class="cls-3" cx="5" cy="5" r="5" transform="translate(624 447)"/>
    </g>
    <g transform="translate(-594 -447)">
      <circle id="Ellipse_1-2" data-name="Ellipse 1" class="cls-3" cx="5" cy="5" r="5" transform="translate(624 447)"/>
    </g>
    <g transform="translate(-564 -447)">
      <circle id="Ellipse_1-3" data-name="Ellipse 1" class="cls-3" cx="5" cy="5" r="5" transform="translate(624 447)"/>
    </g>
    <g transform="translate(-534 -447)">
      <circle id="Ellipse_1-4" data-name="Ellipse 1" class="cls-3" cx="5" cy="5" r="5" transform="translate(624 447)"/>
    </g>
    <g transform="translate(-504 -447)">
      <circle id="Ellipse_1-5" data-name="Ellipse 1" class="cls-3" cx="5" cy="5" r="5" transform="translate(624 447)"/>
    </g>
    <g transform="translate(-474 -447)">
      <circle id="Ellipse_1-6" data-name="Ellipse 1" class="cls-3" cx="5" cy="5" r="5" transform="translate(624 447)"/>
    </g>
    <g transform="translate(-444 -447)">
      <circle id="Ellipse_1-7" data-name="Ellipse 1" class="cls-3" cx="5" cy="5" r="5" transform="translate(624 447)"/>
    </g>
    <g transform="translate(-414 -447)">
      <circle id="Ellipse_1-8" data-name="Ellipse 1" class="cls-3" cx="5" cy="5" r="5" transform="translate(624 447)"/>
    </g>
    <g transform="translate(-384 -447)">
      <circle id="Ellipse_1-9" data-name="Ellipse 1" class="cls-3" cx="5" cy="5" r="5" transform="translate(624 447)"/>
    </g>
    <g transform="translate(-624 -417)">
      <circle id="Ellipse_1-10" data-name="Ellipse 1" class="cls-3" cx="5" cy="5" r="5" transform="translate(624 447)"/>
    </g>
    <g transform="translate(-594 -417)">
      <circle id="Ellipse_1-11" data-name="Ellipse 1" class="cls-3" cx="5" cy="5" r="5" transform="translate(624 447)"/>
    </g>
    <g transform="translate(-564 -417)">
      <circle id="Ellipse_1-12" data-name="Ellipse 1" class="cls-3" cx="5" cy="5" r="5" transform="translate(624 447)"/>
    </g>
    <g transform="translate(-534 -417)">
      <circle id="Ellipse_1-13" data-name="Ellipse 1" class="cls-3" cx="5" cy="5" r="5" transform="translate(624 447)"/>
    </g>
    <g transform="translate(-504 -417)">
      <circle id="Ellipse_1-14" data-name="Ellipse 1" class="cls-3" cx="5" cy="5" r="5" transform="translate(624 447)"/>
    </g>
    <g transform="translate(-474 -417)">
      <circle id="Ellipse_1-15" data-name="Ellipse 1" class="cls-3" cx="5" cy="5" r="5" transform="translate(624 447)"/>
    </g>
    <g transform="translate(-444 -417)">
      <circle id="Ellipse_1-16" data-name="Ellipse 1" class="cls-3" cx="5" cy="5" r="5" transform="translate(624 447)"/>
    </g>
    <g transform="translate(-414 -417)">
      <circle id="Ellipse_1-17" data-name="Ellipse 1" class="cls-3" cx="5" cy="5" r="5" transform="translate(624 447)"/>
    </g>
    <g transform="translate(-384 -417)">
      <circle id="Ellipse_1-18" data-name="Ellipse 1" class="cls-3" cx="5" cy="5" r="5" transform="translate(624 447)"/>
    </g>
    <g transform="translate(-624 -387)">
      <circle id="Ellipse_1-19" data-name="Ellipse 1" class="cls-3" cx="5" cy="5" r="5" transform="translate(624 447)"/>
    </g>
    <g transform="translate(-594 -387)">
      <circle id="Ellipse_1-20" data-name="Ellipse 1" class="cls-3" cx="5" cy="5" r="5" transform="translate(624 447)"/>
    </g>
    <g transform="translate(-564 -387)">
      <circle id="Ellipse_1-21" data-name="Ellipse 1" class="cls-3" cx="5" cy="5" r="5" transform="translate(624 447)"/>
    </g>
    <g transform="translate(-534 -387)">
      <circle id="Ellipse_1-22" data-name="Ellipse 1" class="cls-3" cx="5" cy="5" r="5" transform="translate(624 447)"/>
    </g>
    <g transform="translate(-504 -387)">
      <circle id="Ellipse_1-23" data-name="Ellipse 1" class="cls-3" cx="5" cy="5" r="5" transform="translate(624 447)"/>
    </g>
    <g transform="translate(-474 -387)">
      <circle id="Ellipse_1-24" data-name="Ellipse 1" class="cls-3" cx="5" cy="5" r="5" transform="translate(624 447)"/>
    </g>
    <g transform="translate(-444 -387)">
      <circle id="Ellipse_1-25" data-name="Ellipse 1" class="cls-3" cx="5" cy="5" r="5" transform="translate(624 447)"/>
    </g>
    <g transform="translate(-414 -387)">
      <circle id="Ellipse_1-26" data-name="Ellipse 1" class="cls-3" cx="5" cy="5" r="5" transform="translate(624 447)"/>
    </g>
    <g transform="translate(-384 -387)">
      <circle id="Ellipse_1-27" data-name="Ellipse 1" class="cls-3" cx="5" cy="5" r="5" transform="translate(624 447)"/>
    </g>
    <g transform="translate(-624 -357)">
      <circle id="Ellipse_1-28" data-name="Ellipse 1" class="cls-3" cx="5" cy="5" r="5" transform="translate(624 447)"/>
    </g>
    <g transform="translate(-594 -357)">
      <circle id="Ellipse_1-29" data-name="Ellipse 1" class="cls-3" cx="5" cy="5" r="5" transform="translate(624 447)"/>
    </g>
    <g transform="translate(-564 -357)">
      <circle id="Ellipse_1-30" data-name="Ellipse 1" class="cls-3" cx="5" cy="5" r="5" transform="translate(624 447)"/>
    </g>
    <g transform="translate(-534 -357)">
      <circle id="Ellipse_1-31" data-name="Ellipse 1" class="cls-3" cx="5" cy="5" r="5" transform="translate(624 447)"/>
    </g>
    <g transform="translate(-504 -357)">
      <circle id="Ellipse_1-32" data-name="Ellipse 1" class="cls-3" cx="5" cy="5" r="5" transform="translate(624 447)"/>
    </g>
    <g transform="translate(-474 -357)">
      <circle id="Ellipse_1-33" data-name="Ellipse 1" class="cls-3" cx="5" cy="5" r="5" transform="translate(624 447)"/>
    </g>
    <g transform="translate(-444 -357)">
      <circle id="Ellipse_1-34" data-name="Ellipse 1" class="cls-3" cx="5" cy="5" r="5" transform="translate(624 447)"/>
    </g>
    <g transform="translate(-414 -357)">
      <circle id="Ellipse_1-35" data-name="Ellipse 1" class="cls-3" cx="5" cy="5" r="5" transform="translate(624 447)"/>
    </g>
    <g transform="translate(-384 -357)">
      <circle id="Ellipse_1-36" data-name="Ellipse 1" class="cls-3" cx="5" cy="5" r="5" transform="translate(624 447)"/>
    </g>
    <g transform="translate(-624 -327)">
      <circle id="Ellipse_1-37" data-name="Ellipse 1" class="cls-3" cx="5" cy="5" r="5" transform="translate(624 447)"/>
    </g>
    <g transform="translate(-594 -327)">
      <circle id="Ellipse_1-38" data-name="Ellipse 1" class="cls-3" cx="5" cy="5" r="5" transform="translate(624 447)"/>
    </g>
    <g transform="translate(-564 -327)">
      <circle id="Ellipse_1-39" data-name="Ellipse 1" class="cls-3" cx="5" cy="5" r="5" transform="translate(624 447)"/>
    </g>
    <g transform="translate(-534 -327)">
      <circle id="Ellipse_1-40" data-name="Ellipse 1" class="cls-3" cx="5" cy="5" r="5" transform="translate(624 447)"/>
    </g>
    <g transform="translate(-504 -327)">
      <circle id="Ellipse_1-41" data-name="Ellipse 1" class="cls-3" cx="5" cy="5" r="5" transform="translate(624 447)"/>
    </g>
    <g transform="translate(-474 -327)">
      <circle id="Ellipse_1-42" data-name="Ellipse 1" class="cls-3" cx="5" cy="5" r="5" transform="translate(624 447)"/>
    </g>
    <g transform="translate(-444 -327)">
      <circle id="Ellipse_1-43" data-name="Ellipse 1" class="cls-3" cx="5" cy="5" r="5" transform="translate(624 447)"/>
    </g>
    <g transform="translate(-414 -327)">
      <circle id="Ellipse_1-44" data-name="Ellipse 1" class="cls-3" cx="5" cy="5" r="5" transform="translate(624 447)"/>
    </g>
    <g transform="translate(-384 -327)">
      <circle id="Ellipse_1-45" data-name="Ellipse 1" class="cls-3" cx="5" cy="5" r="5" transform="translate(624 447)"/>
    </g>
    <g transform="translate(-624 -297)">
      <circle id="Ellipse_1-46" data-name="Ellipse 1" class="cls-3" cx="5" cy="5" r="5" transform="translate(624 447)"/>
    </g>
    <g transform="translate(-594 -297)">
      <circle id="Ellipse_1-47" data-name="Ellipse 1" class="cls-3" cx="5" cy="5" r="5" transform="translate(624 447)"/>
    </g>
    <g transform="translate(-564 -297)">
      <circle id="Ellipse_1-48" data-name="Ellipse 1" class="cls-3" cx="5" cy="5" r="5" transform="translate(624 447)"/>
    </g>
    <g transform="translate(-534 -297)">
      <circle id="Ellipse_1-49" data-name="Ellipse 1" class="cls-3" cx="5" cy="5" r="5" transform="translate(624 447)"/>
    </g>
    <g transform="translate(-504 -297)">
      <circle id="Ellipse_1-50" data-name="Ellipse 1" class="cls-3" cx="5" cy="5" r="5" transform="translate(624 447)"/>
    </g>
    <g transform="translate(-474 -297)">
      <circle id="Ellipse_1-51" data-name="Ellipse 1" class="cls-3" cx="5" cy="5" r="5" transform="translate(624 447)"/>
    </g>
    <g transform="translate(-444 -297)">
      <circle id="Ellipse_1-52" data-name="Ellipse 1" class="cls-3" cx="5" cy="5" r="5" transform="translate(624 447)"/>
    </g>
    <g transform="translate(-414 -297)">
      <circle id="Ellipse_1-53" data-name="Ellipse 1" class="cls-3" cx="5" cy="5" r="5" transform="translate(624 447)"/>
    </g>
    <g transform="translate(-384 -297)">
      <circle id="Ellipse_1-54" data-name="Ellipse 1" class="cls-3" cx="5" cy="5" r="5" transform="translate(624 447)"/>
    </g>
  </g>
</svg>
